Coordinates
version=1
nRows=43
nColumns=12
inDegrees=yes

Units are S.I. units (second, meters, Newtons, ...)
Angles are in degrees

endheader
time	SC_y	SC_z	SC_x	AC_y	AC_z	AC_x	GH_y	GH_z	GH_yy	EL_x	PS_y
       0.0              -58.86           25.0          13.16           67.0         -9.565          1.373         -122.6           38.5          87.57          13.05          116.2
   0.02575              -58.86          24.99          13.16           67.0         -9.563          1.372         -122.6           38.5          87.54          13.07          116.2
   0.05151              -58.86          24.99          13.17           67.0         -9.562           1.37         -122.6          38.49           87.5          13.09          116.2
   0.07726              -58.85          24.99          13.17           67.0          -9.56          1.368         -122.5          38.49          87.47          13.11          116.2
     0.103              -58.85          24.99          13.17           67.0         -9.557          1.366         -122.5          38.48          87.43          13.13          116.2
    0.1288              -58.85          24.98          13.17           67.0         -9.555          1.364         -122.5          38.48           87.4          13.15          116.2
    0.1545              -58.85          24.98          13.18           67.0         -9.553          1.362         -122.4          38.47          87.36          13.17          116.2
    0.1803              -58.85          24.98          13.18           67.0          -9.55          1.359         -122.4          38.47          87.31          13.19          116.1
     0.206              -58.84          24.98          13.18           67.0         -9.547          1.357         -122.3          38.46          87.26          13.22          116.1
    0.2318              -58.84          24.97          13.19           67.0         -9.544          1.354         -122.3          38.45          87.21          13.25          116.1
    0.2575              -58.84          24.97          13.19           67.0         -9.541          1.351         -122.2          38.45          87.16          13.28          116.1
    0.2833              -58.84          24.96           13.2           67.0         -9.537          1.348         -122.2          38.44           87.1          13.31          116.1
    0.3091              -58.83          24.96           13.2          66.99         -9.533          1.344         -122.1          38.43          87.04          13.34          116.0
    0.3348              -58.83          24.96           13.2          66.99         -9.529           1.34         -122.0          38.42          86.97          13.38          116.0
    0.3606              -58.83          24.95          13.21          66.99         -9.525          1.336         -121.9          38.41           86.9          13.42          116.0
    0.3863              -58.82          24.95          13.22          66.99          -9.52          1.332         -121.9           38.4          86.82          13.47          116.0
    0.4121              -58.82          24.94          13.22          66.99         -9.515          1.327         -121.8          38.39          86.73          13.51          115.9
    0.4378              -58.81          24.93          13.23          66.99         -9.509          1.322         -121.7          38.38          86.64          13.57          115.9
    0.4636              -58.81          24.93          13.24          66.99         -9.503          1.316         -121.6          38.36          86.54          13.62          115.9
    0.4893               -58.8          24.92          13.25          66.98         -9.496           1.31         -121.4          38.35          86.42          13.68          115.8
    0.5151               -58.8          24.91          13.25          66.98         -9.489          1.303         -121.3          38.33           86.3          13.75          115.8
    0.5408              -58.79           24.9          13.26          66.98          -9.48          1.295         -121.2          38.31          86.17          13.83          115.7
    0.5666              -58.78          24.89          13.28          66.98         -9.471          1.287         -121.0          38.29          86.02          13.91          115.7
    0.5924              -58.78          24.88          13.29          66.97         -9.461          1.277         -120.8          38.27          85.85           14.0          115.6
    0.6181              -58.77          24.87           13.3          66.97          -9.45          1.267         -120.6          38.25          85.66           14.1          115.5
    0.6439              -58.76          24.86          13.32          66.97         -9.438          1.256         -120.4          38.22          85.46          14.22          115.5
    0.6696              -58.74          24.84          13.33          66.96         -9.424          1.243         -120.2          38.19          85.23          14.35          115.4
    0.6954              -58.73          24.82          13.35          66.96         -9.408          1.228         -119.9          38.15          84.97          14.49          115.3
    0.7211              -58.72           24.8          13.38          66.96          -9.39          1.212         -119.6          38.11          84.67          14.65          115.2
    0.7469               -58.7          24.78           13.4          66.95          -9.37          1.193         -119.3          38.07          84.34          14.84          115.1
    0.7726              -58.68          24.76          13.43          66.94         -9.347          1.172         -118.9          38.02          83.96          15.05          114.9
    0.7984              -58.66          24.73          13.46          66.94          -9.32          1.147         -118.4          37.96          83.52          15.29          114.8
    0.8241              -58.64          24.69           13.5          66.93          -9.29          1.119         -117.9          37.89          83.02          15.57          114.6
    0.8499              -58.61          24.65          13.54          66.92         -9.254          1.086         -117.3          37.81          82.44          15.89          114.4
    0.8757              -58.57          24.61          13.59          66.91         -9.213          1.048         -116.5          37.72          81.75          16.27          114.1
    0.9014              -58.53          24.56          13.65          66.89         -9.164          1.003         -115.7          37.61          80.94          16.71          113.8
    0.9272              -58.49          24.49          13.72          66.88         -9.105          0.949         -114.7          37.48          79.98          17.24          113.5
    0.9529              -58.43          24.41          13.81          66.86         -9.036         0.8846         -113.5          37.33          78.83          17.88          113.0
    0.9787              -58.36          24.32          13.91          66.84         -8.951         0.8067         -112.0          37.14          77.44          18.65          112.5
     1.004              -58.28          24.21          14.04          66.81         -8.848         0.7116         -110.2          36.92          75.74          19.59          111.9
      1.03              -58.18          24.07           14.2          66.77         -8.721         0.5941         -108.0          36.63          73.64          20.75          111.1
     1.056              -58.05           23.9          14.39          66.73         -8.562         0.4477         -105.3          36.28          71.02           22.2          110.2
     1.082              -57.88          23.68          14.64          66.68         -8.362         0.2632         -101.8          35.84          67.73          24.02          109.0
